<?xml version="1.0" encoding="UTF-8" standalone="no"?>
<svg width="220" height="80" viewBox="0 0 220 80" version="1.1" id="svg32" xmlns="http://www.w3.org/2000/svg" xmlns:svg="http://www.w3.org/2000/svg">
  <defs id="defs14">
    <linearGradient id="waveGradient" x1="0%" y1="0%" x2="100%" y2="0%">
      <stop offset="0%" stop-color="#FF006E" id="stop2" />
      <stop offset="50%" stop-color="#8338EC" id="stop4" />
      <stop offset="100%" stop-color="#3A86FF" id="stop6" />
    </linearGradient>
    <linearGradient id="borderGradient" x1="0%" y1="0%" x2="100%" y2="0%">
      <stop offset="0%" stop-color="#8338EC" id="stop9" />
      <stop offset="100%" stop-color="#3A86FF" id="stop11" />
    </linearGradient>
  </defs>

  <!-- H letter  -->
  <g aria-label="H" id="text16" style="font-weight:800;font-size:72px;font-family:'Noto Sans';fill:#ff006e">
    <path
       d="M 48.6,60 H 37.728 V 37.824 H 17.352 V 60 H 6.48 V 8.592 h 10.872 v 20.16 H 37.728 V 8.592 H 48.6 Z"
       id="path36" />
  </g>

  <!-- Flowing wave connector centered on H -->
  <g transform="translate(60,5)" id="g22">
    <svg width="120" height="60" viewBox="0 0 120 60" version="1.1" id="svg20">
      <path d="m 0,30 q 30,-20 60,0 30,20 60,0" stroke="url(#waveGradient)" stroke-width="4" fill="none" id="path18">
        <animate
           attributeName="d"
           values="M 0 30 Q 30 10, 60 30 T 120 30; M 0 30 Q 30 50, 60 30 T 120 30; M 0 30 Q 30 10, 60 30 T 120 30"
           dur="3s"
           repeatCount="indefinite" />
      </path>
    </svg>
  </g>
  <g transform="translate(160,35)" id="g30">

    <!-- Background for gradient border -->
    <path id="rect24" style="fill:url(#borderGradient)"
       d="m -10,-20 h 40 c 11.08,0 20,8.92 20,20 0,11.08 -8.92,20 -20,20 h -40 c -11.08,0 -20,-8.92 -20,-20 0,-11.08 8.92,-20 20,-20 z" />

    <!-- White fill on top with 2px border -->
    <path id="rect26" style="fill:#ffffff"
       d="m -10,-18 h 40 c 9.972,0 18,8.028 18,18 0,9.972 -8.028,18 -18,18 h -40 c -9.972,0 -18,-8.028 -18,-18 0,-9.972 8.028,-18 18,-18 z" />

    <!-- "img" text -->
    <g aria-label="img" id="text28" style="font-weight:700;font-size:24px;font-family:'Noto Sans';text-anchor:middle;fill:#333333">
      <path
         d="m -9.3680009,-10.24 q 0.792,0 1.368,0.384 0.576,0.36 0.576,1.368 0,0.984 -0.576,1.368 -0.576,0.384 -1.368,0.384 -0.8160001,0 -1.3920001,-0.384 -0.552,-0.384 -0.552,-1.368 0,-1.008 0.552,-1.368 0.576,-0.384 1.3920001,-0.384 z m 1.776,5.136 V 8 H -11.168001 V -5.104 Z"
         id="path41" />
      <path
         d="m 11.536006,-5.344 q 2.232,0 3.36,1.152 1.152,1.128 1.152,3.648 V 8 h -3.576 V 0.344 q 0,-2.832 -1.968,-2.832 -1.4159996,0 -2.0159996,1.008 -0.6,1.008 -0.6,2.904 V 8 h -3.576 V 0.344 q 0,-2.832 -1.968,-2.832 -1.48799999,0 -2.06399999,1.128 -0.552,1.104 -0.552,3.192 V 8 H -3.8479936 V -5.104 h 2.736 l 0.48000001,1.68 h 0.192 q 0.6,-1.008 1.63199999,-1.464 1.056,-0.456 2.184,-0.456 1.44,0 2.448,0.48 1.008,0.456 1.536,1.44 h 0.312 q 0.6,-1.008 1.656,-1.464 1.0799996,-0.456 2.2079996,-0.456 z"
         id="path43" />
      <path
         d="m 23.968015,-5.344 q 2.424,0 3.792,1.92 h 0.096 l 0.288,-1.68 h 3.024 V 8.024 q 0,2.808 -1.656,4.272 -1.656,1.464 -4.896,1.464 -1.392,0 -2.592,-0.168 -1.176,-0.168 -2.304,-0.6 v -2.856 q 2.424,1.008 5.112,1.008 2.76,0 2.76,-2.976 V 7.904 q 0,-0.408 0.024,-0.84 0.048,-0.432 0.072,-0.768 h -0.096 q -0.672,1.032 -1.608,1.488 -0.936,0.456 -2.112,0.456 -2.328,0 -3.648,-1.776 -1.296,-1.8 -1.296,-4.992 0,-3.216 1.344,-5.016 1.344,-1.8 3.696,-1.8 z m 1.128,2.904 q -2.52,0 -2.52,3.96 0,3.912 2.568,3.912 1.368,0 2.016,-0.768 0.672,-0.792 0.672,-2.736 V 1.496 q 0,-2.112 -0.648,-3.024 -0.648,-0.912 -2.088,-0.912 z"
         id="path45" />
    </g>
  </g>
</svg>
